<?xml version="1.0" encoding="UTF-8"?><svg id="Capa_2" xmlns="http://www.w3.org/2000/svg" width="45.06mm" height="12.35mm" viewBox="0 0 127.74 35"><g id="Capa_1-2"><path d="m22.51,22.28c-.42.97-.8,1.86-1.19,2.74-1.4,3.14-2.81,6.28-4.2,9.43-.18.4-.37.56-.78.55-2.43-.02-4.86,0-7.3,0q-.67,0-.36-.7c1.7-3.81,3.38-7.63,5.1-11.44.25-.54.12-.58-.33-.58-2.45.02-4.9,0-7.35.01-.44,0-.55-.07-.33-.56,1.57-3.52,3.13-7.05,4.69-10.57.11-.25.2-.48.54-.48,2.65.02,5.3.01,7.95.02.07.01.13.03.2.05-.68,1.55-1.36,3.07-2.03,4.59-.95,2.15-1.9,4.29-2.86,6.43-.18.41-.13.51.28.51,2.45-.01,4.91,0,7.35,0h.62Z" fill="#6ec8e3" stroke-width="0"/><path d="m23.03.02c2.48,0,4.97,0,7.45,0,.41,0,.56.02.33.54-.98,2.17-1.94,4.35-2.89,6.54-.15.34-.32.48-.65.48-4.99,0-9.98,0-14.96,0-.42,0-.46-.15-.3-.52.98-2.21,1.98-4.42,2.94-6.65.15-.35.34-.39.63-.39,2.48.01,4.96,0,7.45,0Z" fill="#6ec8e3" stroke-width="0"/><path d="m12.31.02c-.58,1.33-1.12,2.58-1.66,3.8-.49,1.1-1,2.21-1.47,3.31-.13.29-.27.43-.57.43-2.74,0-5.48,0-8.22,0-.4,0-.47-.1-.28-.52C1.1,4.82,2.07,2.58,3.06.34,3.15.14,3.25,0,3.49,0c2.91.02,5.81.02,8.81.02Z" fill="#6ec8e3" stroke-width="0"/><path d="m48.92,18.07c.53.74.82,1.66.81,2.6,0,.79-.19,1.57-.57,2.24-.41.69-.98,1.24-1.66,1.57-.72.38-1.56.58-2.52.58h-5.8V8.75h5.53c.99,0,1.83.19,2.54.56.71.38,1.24.88,1.61,1.51.36.63.55,1.37.55,2.12,0,.94-.22,1.72-.67,2.35-.47.64-1.09,1.12-1.79,1.38.78.16,1.44.62,1.98,1.38Zm-7.36-2.46h2.94c.78,0,1.39-.2,1.82-.6.44-.4.66-.97.65-1.72,0-.74-.22-1.31-.65-1.72-.44-.41-1.04-.62-1.82-.62h-2.94v4.67Zm5.11,6.62c.46-.44.69-1.05.69-1.83,0-.8-.24-1.43-.73-1.9-.49-.47-1.13-.7-1.94-.7h-3.13v5.09h3.21c.81,0,1.44-.22,1.9-.66Z" fill="#fff" stroke-width="0"/><path d="m62.77,19.59h-8.78c.07,1.03.41,1.86,1.02,2.49.61.63,1.36.94,2.25.94,1.28,0,2.18-.6,2.71-1.81h2.56c-.34,1.17-1,2.2-1.89,2.92-.91.76-2.04,1.14-3.39,1.14-1.03.02-2.05-.27-2.95-.83-.87-.55-1.58-1.36-2.05-2.35-.49-1.01-.74-2.18-.74-3.51s.24-2.5.72-3.51c.46-.98,1.16-1.79,2.02-2.33.87-.55,1.87-.82,2.99-.82,1.01-.02,2.01.25,2.9.8.84.52,1.52,1.3,1.98,2.24.47.96.71,2.07.71,3.32,0,.44-.02.88-.08,1.31Zm-2.4-2.16c-.01-.99-.33-1.78-.94-2.37-.61-.59-1.37-.89-2.27-.89-.78-.02-1.53.3-2.11.88-.58.59-.93,1.38-1.04,2.38h6.36Z" fill="#fff" stroke-width="0"/><path d="m74.55,8.75v2.18h-3.86v14.12h-2.38v-14.12h-3.88v-2.18h10.12Z" fill="#fff" stroke-width="0"/><path d="m80.72,12.47c.58-.37,1.26-.55,2.05-.55v2.77h-.6c-.93,0-1.64.27-2.12.8-.48.53-.72,1.45-.72,2.77v6.8h-2.38v-12.93h2.38v1.88c.33-.64.81-1.17,1.39-1.54Z" fill="#fff" stroke-width="0"/><path d="m95.37,12.13v12.93h-2.38v-1.52c-.39.55-.9.98-1.47,1.25-.61.31-1.26.46-1.93.46-.84.02-1.68-.2-2.43-.63-.72-.42-1.3-1.08-1.69-1.88-.41-.83-.61-1.83-.61-3v-7.61h2.36v7.21c0,1.16.26,2.05.77,2.66.51.62,1.22.93,2.11.93s1.6-.31,2.12-.93.78-1.51.78-2.66v-7.2h2.38Z" fill="#fff" stroke-width="0"/><path d="m100.24,24.72c-.67-.33-1.26-.85-1.7-1.5-.41-.61-.64-1.36-.67-2.12h2.46c.02.27.1.54.22.77.12.24.29.44.48.6.42.37.95.55,1.59.55s1.19-.14,1.55-.43c.37-.29.55-.66.55-1.11,0-.48-.21-.84-.62-1.08-.41-.24-1.06-.49-1.95-.77-.72-.21-1.42-.47-2.11-.77-.54-.25-1.03-.65-1.41-1.15-.39-.52-.59-1.2-.59-2.04,0-.68.19-1.34.55-1.89.4-.6.94-1.07,1.55-1.35.74-.34,1.53-.51,2.32-.49,1.31,0,2.36.37,3.16,1.11.8.74,1.23,1.76,1.28,3.04h-2.38c-.01-.27-.07-.53-.18-.77-.11-.24-.26-.45-.44-.62-.38-.34-.89-.52-1.53-.52-.62,0-1.1.13-1.44.4-.16.11-.28.27-.37.46-.09.18-.13.39-.13.6,0,.16.03.33.08.47.06.15.14.28.25.39.24.24.51.43.81.55.32.13.79.3,1.42.5.7.2,1.39.46,2.05.76.53.26,1,.65,1.38,1.14.39.5.59,1.17.61,1.99,0,.7-.18,1.39-.54,1.97-.39.6-.92,1.08-1.53,1.36-.74.34-1.53.51-2.33.49-.83.01-1.66-.18-2.42-.55Z" fill="#fff" stroke-width="0"/><path d="m112.41,14.31v7.16c0,.49.1.83.3,1.04.2.21.55.32,1.03.32h1.46v2.23h-1.87c-1.07,0-1.89-.28-2.46-.85-.57-.56-.85-1.48-.85-2.74v-7.16h-1.36v-2.18h1.36v-3.21h2.4v3.21h2.79v2.18h-2.8Z" fill="#fff" stroke-width="0"/><path d="m127.74,12.13l-7.05,19.01h-2.46l2.34-6.28-4.53-12.72h2.65l3.23,9.85,3.36-9.85h2.46Z" fill="#fff" stroke-width="0"/></g></svg>