<?xml version="1.0" encoding="UTF-8"?><svg id="Capa_2" xmlns="http://www.w3.org/2000/svg" width="10.58mm" height="10.58mm" xmlns:xlink="http://www.w3.org/1999/xlink" viewBox="0 0 30 30"><defs><clipPath id="clippath"><rect width="30" height="30" fill="none" stroke-width="0"/></clipPath></defs><g id="Capa_1-2"><g clip-path="url(#clippath)"><path d="m26.25,3.75c.5,0,.97.2,1.33.55.35.35.55.83.55,1.33v18.75c0,.5-.2.97-.55,1.33-.35.35-.83.55-1.33.55H3.75c-.5,0-.97-.2-1.33-.55-.35-.35-.55-.83-.55-1.33V5.62c0-.5.2-.97.55-1.33.35-.35.83-.55,1.33-.55h22.5ZM3.75,1.88c-.99,0-1.95.4-2.65,1.1-.7.7-1.1,1.66-1.1,2.65v18.75c0,.99.4,1.95,1.1,2.65.7.7,1.66,1.1,2.65,1.1h22.5c.99,0,1.95-.4,2.65-1.1.7-.7,1.1-1.66,1.1-2.65V5.62c0-.99-.4-1.95-1.1-2.65-.7-.7-1.66-1.1-2.65-1.1H3.75Z" fill="#fff" stroke-width="0"/><path d="m5.62,7.5c0-.5.2-.97.55-1.33.35-.35.83-.55,1.33-.55h3.75c.5,0,.97.2,1.33.55.35.35.55.83.55,1.33v15c0,.5-.2.97-.55,1.33-.35.35-.83.55-1.33.55h-3.75c-.5,0-.97-.2-1.33-.55-.35-.35-.55-.83-.55-1.33V7.5Z" fill="#fff" stroke-width="0"/></g></g></svg>